<svg width="24" height="24" viewBox="0 0 24 24" fill="none" xmlns="http://www.w3.org/2000/svg">
<g id="mage:box-3d-fill">
<path id="Vector" d="M20.0615 5.08616L20.062 5.08641C20.7222 5.45154 21.2713 5.98855 21.651 6.64046C22.0474 7.30811 22.248 8.07375 22.23 8.84995L22.23 15.2026C22.23 15.2029 22.23 15.2031 22.23 15.2033V15.204H21.73C21.7318 15.8684 21.5556 16.5212 21.2197 17.0945C20.8838 17.6678 20.4005 18.1407 19.82 18.464L20.0615 5.08616ZM20.0615 5.08616L14.0615 1.77616L14.0616 1.77613L14.057 1.77366C13.4263 1.43425 12.7212 1.25659 12.005 1.25659C11.2888 1.25659 10.5838 1.43425 9.95307 1.77366L9.95306 1.77364L9.9485 1.77616L3.9485 5.08616L3.94804 5.08641C3.28761 5.45166 2.7384 5.98889 2.35867 6.64108C1.97377 7.29316 1.77051 8.03642 1.77002 8.79363V8.79396L1.77001 15.204L1.77003 15.2075C1.77532 15.9609 1.97897 16.6997 2.36048 17.3495C2.742 17.9993 3.28793 18.5371 3.94333 18.9089L3.94331 18.9089L3.94906 18.9121L9.94737 22.2111L20.0615 5.08616ZM19.72 15.2071L19.72 15.209C19.7231 15.5163 19.6429 15.8187 19.4877 16.0841C19.3326 16.3494 19.1085 16.5677 18.8391 16.7158L18.8385 16.7162L13.25 19.7991V12.7067L19.6803 8.83974L19.72 15.2071Z" stroke="#989BA2"/>
</g>
</svg>
